<svg width="28" height="25" viewBox="0 0 28 25" fill="none" xmlns="http://www.w3.org/2000/svg">
<g clip-path="url(#clip0_7_3)">
<path d="M23.4674 8.75V11.25H24.8478V13.75H23.4674V16.25H2.76087V8.75H23.4674ZM24.1576 6.25H2.07065C0.927049 6.25 0 7.08945 0 8.125V16.875C0 17.9105 0.927049 18.75 2.07065 18.75H24.1576C25.3012 18.75 26.2283 17.9105 26.2283 16.875V16.25H26.5734C27.1452 16.25 27.6087 15.8303 27.6087 15.3125V9.6875C27.6087 9.16973 27.1452 8.75 26.5734 8.75H26.2283V8.125C26.2283 7.08945 25.3012 6.25 24.1576 6.25ZM9.66305 10H4.14131V15H9.66305V10Z" fill="black"/>
</g>
<defs>
<clipPath id="clip0_7_3">
<rect width="27.6087" height="25" fill="white"/>
</clipPath>
</defs>
</svg>
