<svg width="36" height="28" viewBox="0 0 36 28" fill="none" xmlns="http://www.w3.org/2000/svg">
<path d="M33.5222 15.6971C35.6772 12.5042 31.297 10.29 25.5702 9.20413C26.001 8.44244 26.1259 7.44537 24.9109 6.49337C23.3528 5.27494 24.3884 3.5 24.3884 3.5C24.3884 3.5 21.118 5.84631 23.1829 7.46419C23.9445 8.0605 24.3411 8.58419 24.5307 9.02213C22.9497 8.76867 21.3489 8.59709 19.7387 8.5085C20.2197 7.49175 20.2664 6.21469 18.751 4.99187C16.6765 3.31581 18.058 0.875 18.058 0.875C18.058 0.875 13.6969 4.10113 16.4504 6.32538C17.4555 7.1365 17.9849 7.8505 18.2414 8.449C16.5347 8.40919 14.8922 8.46737 13.4331 8.62619C13.6069 7.97212 13.4618 7.22006 12.5342 6.49381C10.9761 5.27538 12.0122 3.5 12.0122 3.5C12.0122 3.5 8.7413 5.84631 10.8068 7.46419C11.4537 7.97081 11.8328 8.42319 12.0505 8.81737C11.8041 8.85937 11.565 8.90487 11.335 8.95431C4.22386 8.43675 1.12224 9.5795 2.53917 11.8212C0.0664226 13.7445 0.995672 15.9394 4.08998 17.619C5.70436 22.7907 6.12005 27.125 18.279 27.125C29.1285 27.125 30.6276 23.6731 31.9714 19.2553C36.0034 18.6309 35.1445 17.1277 33.5222 15.6971ZM32.517 15.1804C31.1665 17.4204 25.3052 19.1065 18.279 19.1065C11.2534 19.1065 5.39217 17.4204 4.04105 15.1804C4.01236 15.1139 3.9848 15.0448 3.95723 14.9774C4.60073 13.7078 6.69211 12.6061 9.62949 11.8685C8.9393 12.3874 8.79586 13.1622 10.6122 13.4339C11.1319 13.5117 12.559 13.2423 11.9352 11.865C11.848 11.6725 11.7057 11.5434 11.5307 11.4656C13.549 11.1064 15.84 10.8994 18.279 10.8994C18.5524 10.8994 18.8207 10.9069 19.0902 10.9117C17.6828 11.3002 16.5347 12.4972 19.4085 12.8503C20.043 12.9281 21.7851 12.6586 21.0235 11.2814C20.9569 11.1586 20.8503 11.0515 20.7141 10.9707C23.4068 11.1248 25.8464 11.5281 27.8185 12.1096C26.0843 12.0343 24.1605 12.8656 27.2414 14.0359C27.9023 14.287 29.9104 14.5176 29.6342 12.9968C29.6143 12.8869 29.5644 12.7816 29.488 12.6879C31.0647 13.3341 32.1644 14.1177 32.6003 14.9774L32.517 15.1804Z" fill="#F85A17" fill-opacity="0.69"/>
<path d="M14.5334 16.1179C16.3519 16.1179 17.5647 14.8391 18.5147 14.3386C19.8422 13.6386 23.1801 13.3656 20.2405 13.3105C17.4522 13.2584 14.0097 15.0189 11.709 14.8977C7.89979 14.6965 11.8013 16.1179 14.5334 16.1179Z" fill="#F85A17" fill-opacity="0.69"/>
<path d="M18.4629 18.7307C19.1053 18.8269 20.871 18.4936 20.0986 16.7904C19.2262 14.8632 13.9449 18.0543 18.4629 18.7307Z" fill="#F85A17" fill-opacity="0.69"/>
<path d="M8.46389 14.5154C7.85021 13.8416 6.96033 12.9872 6.59189 13.4321C6.08846 14.0407 5.92983 15.2653 6.29546 15.3195C9.16196 15.747 8.96114 15.061 8.46389 14.5154Z" fill="#F85A17" fill-opacity="0.69"/>
<path d="M25.128 14.7884C25.6449 14.2905 24.6127 13.0922 23.9501 13.3018C22.9129 13.6299 22.3149 13.4076 21.8593 13.9055C20.7922 15.0714 24.4254 15.4643 25.128 14.7884Z" fill="#F85A17" fill-opacity="0.69"/>
<path d="M24.8051 16.2151C24.0614 15.96 24.2369 16.8144 23.1384 16.1289C22.352 15.638 20.66 16.8761 21.776 17.717C23.018 18.6528 23.3488 17.7634 23.8708 17.8382C24.9316 17.99 26.7558 16.8844 24.8051 16.2151Z" fill="#F85A17" fill-opacity="0.69"/>
<path d="M12.4402 16.5073C12.0527 16.2107 11.5329 16.5686 11.2393 17.0052C10.9485 16.8941 10.7117 16.8683 10.7117 16.8683C10.4895 16.3756 9.82855 16.0379 9.82855 16.0379C9.82855 16.0379 9.88874 16.5502 9.97593 16.8C9.2458 16.5983 9.2233 15.5833 9.2233 15.5833C9.2233 15.5833 8.73337 15.8113 8.7778 16.1984C7.97399 15.694 7.28943 15.9298 7.28943 15.9298C7.28943 15.9298 8.30924 16.3761 8.44987 16.6771C7.87724 16.7116 7.54312 16.8656 7.34849 17.2239C7.34905 17.227 8.48024 16.8053 9.31724 17.1098C8.98705 17.3198 9.1513 17.8443 9.1513 17.8443C9.93037 17.2021 10.5525 17.2708 11.0503 17.3858C10.9901 17.5823 10.9941 17.7616 11.1009 17.8706C11.9644 18.7534 14.9721 18.5548 15.7798 17.9021C16.758 17.1124 14.04 17.7319 12.4402 16.5073Z" fill="#F85A17" fill-opacity="0.69"/>
<path d="M14.5648 13.1819C14.3089 13.5817 14.3072 13.8836 14.603 14.1977C14.607 14.1986 14.7223 13.2274 15.4879 12.8249C15.5503 13.153 16.2129 13.3122 16.2129 13.3122C15.683 11.8527 17.2299 11.7766 17.2226 11.2529C16.4025 11.3067 15.9367 11.7705 15.9367 11.7705C15.2792 11.6659 14.5665 11.9332 14.5665 11.9332C14.5665 11.9332 15.1633 12.1559 15.4834 12.2264C14.886 12.6101 13.7542 12.1039 13.7542 12.1039C13.7542 12.1039 13.7542 12.5484 14.2042 12.7168C13.235 12.9946 13.1439 13.5721 13.1439 13.5721C13.1439 13.5721 14.1598 13.1211 14.5648 13.1819Z" fill="#F85A17" fill-opacity="0.69"/>
<path d="M28.9372 15.1751C29.1701 14.8313 28.8303 14.4738 28.8303 14.4738C28.8303 14.4738 28.3078 15.4044 27.5343 15.3724C27.738 15.1677 28.0473 14.7127 28.0473 14.7127C28.0473 14.7127 27.27 14.8278 26.8211 15.2158C26.8211 15.2158 26.0921 15.0588 25.3923 15.3948C25.7872 15.8191 27.0888 15.1642 27.779 16.5826C27.779 16.5826 28.1896 16.1481 27.9888 15.8554C28.9125 15.8244 29.7483 16.5515 29.7511 16.5489C29.7478 16.1595 29.516 15.918 29.0036 15.715C29.2826 15.4792 30.4447 15.372 30.4447 15.372C30.4447 15.372 29.9295 14.9498 28.9372 15.1751Z" fill="#F85A17" fill-opacity="0.69"/>
</svg>
