<svg width="27" height="26" viewBox="0 0 27 26" fill="none" xmlns="http://www.w3.org/2000/svg">
<path d="M12.8235 24H3.35294C2.99412 24 2.64999 23.8712 2.39627 23.642C2.14254 23.4128 2 23.1019 2 22.7778V3.22222C2 2.89807 2.14254 2.58719 2.39627 2.35798C2.64999 2.12877 2.99412 2 3.35294 2H22.2941C22.6529 2 22.9971 2.12877 23.2508 2.35798C23.5045 2.58719 23.6471 2.89807 23.6471 3.22222V10.25" stroke="#F85A17" stroke-opacity="0.69" stroke-width="4" stroke-linecap="round" stroke-linejoin="round"/>
<path d="M22.0478 14.8333C23.6781 14.8333 24.9999 15.9822 24.9999 17.3999C24.9999 19.2455 23.0314 20.8222 22.0478 21.6777C21.3916 22.2479 20.5724 22.8187 19.5882 23.3888C18.6046 22.8187 17.784 22.2479 17.1285 21.6777C16.1442 20.8222 14.1764 19.2455 14.1764 17.3999C14.1764 15.9822 15.4982 14.8333 17.1285 14.8333C18.1547 14.8333 19.0592 15.2892 19.5882 15.9809C19.8648 15.6242 20.2331 15.3334 20.6615 15.1335C21.0899 14.9336 21.5656 14.8306 22.0478 14.8333Z" fill="#2F88FF" stroke="#F85A17" stroke-opacity="0.69" stroke-width="4" stroke-linejoin="round"/>
<path d="M7.41162 6.88882H18.2352" stroke="#F85A17" stroke-opacity="0.69" stroke-width="4" stroke-linecap="round"/>
</svg>
