<svg width="28" height="25" viewBox="0 0 28 25" fill="none" xmlns="http://www.w3.org/2000/svg">
<path d="M9.31794 13.75H7.24729C6.86594 13.75 6.55707 14.0297 6.55707 14.375V21.875C6.55707 22.2203 6.86594 22.5 7.24729 22.5H9.31794C9.69929 22.5 10.0082 22.2203 10.0082 21.875V14.375C10.0082 14.0297 9.69929 13.75 9.31794 13.75ZM3.7962 17.5H1.72554C1.3442 17.5 1.03532 17.7797 1.03532 18.125V21.875C1.03532 22.2203 1.3442 22.5 1.72554 22.5H3.7962C4.17754 22.5 4.48642 22.2203 4.48642 21.875V18.125C4.48642 17.7797 4.17754 17.5 3.7962 17.5ZM14.8397 10H12.769C12.3877 10 12.0788 10.2797 12.0788 10.625V21.875C12.0788 22.2203 12.3877 22.5 12.769 22.5H14.8397C15.221 22.5 15.5299 22.2203 15.5299 21.875V10.625C15.5299 10.2797 15.221 10 14.8397 10ZM20.3614 6.25H18.2908C17.9094 6.25 17.6006 6.52969 17.6006 6.875V21.875C17.6006 22.2203 17.9094 22.5 18.2908 22.5H20.3614C20.7428 22.5 21.0517 22.2203 21.0517 21.875V6.875C21.0517 6.52969 20.7428 6.25 20.3614 6.25ZM25.8832 2.5H23.8125C23.4312 2.5 23.1223 2.77969 23.1223 3.125V21.875C23.1223 22.2203 23.4312 22.5 23.8125 22.5H25.8832C26.2645 22.5 26.5734 22.2203 26.5734 21.875V3.125C26.5734 2.77969 26.2645 2.5 25.8832 2.5Z" fill="black"/>
</svg>
