<svg width="26" height="20" viewBox="0 0 26 20" fill="none" xmlns="http://www.w3.org/2000/svg">
<path d="M8.28262 11.25H6.21197C5.83062 11.25 5.52175 11.5297 5.52175 11.875V19.375C5.52175 19.7203 5.83062 20 6.21197 20H8.28262C8.66397 20 8.97284 19.7203 8.97284 19.375V11.875C8.97284 11.5297 8.66397 11.25 8.28262 11.25ZM2.76087 15H0.690218C0.308873 15 0 15.2797 0 15.625V19.375C0 19.7203 0.308873 20 0.690218 20H2.76087C3.14222 20 3.45109 19.7203 3.45109 19.375V15.625C3.45109 15.2797 3.14222 15 2.76087 15ZM13.8044 7.5H11.7337C11.3524 7.5 11.0435 7.77969 11.0435 8.125V19.375C11.0435 19.7203 11.3524 20 11.7337 20H13.8044C14.1857 20 14.4946 19.7203 14.4946 19.375V8.125C14.4946 7.77969 14.1857 7.5 13.8044 7.5ZM19.3261 3.75H17.2555C16.8741 3.75 16.5652 4.02969 16.5652 4.375V19.375C16.5652 19.7203 16.8741 20 17.2555 20H19.3261C19.7075 20 20.0163 19.7203 20.0163 19.375V4.375C20.0163 4.02969 19.7075 3.75 19.3261 3.75ZM24.8479 0H22.7772C22.3959 0 22.087 0.279687 22.087 0.625V19.375C22.087 19.7203 22.3959 20 22.7772 20H24.8479C25.2292 20 25.5381 19.7203 25.5381 19.375V0.625C25.5381 0.279687 25.2292 0 24.8479 0Z" fill="black"/>
</svg>
