<svg width="28" height="18" viewBox="0 0 28 18" fill="none" xmlns="http://www.w3.org/2000/svg">
<path d="M27.7773 4.86804C20.0261 -1.62387 7.97079 -1.62149 0.222651 4.86804C-0.0687249 5.11208 -0.0744124 5.52527 0.207338 5.77842L1.70534 7.12418C1.97397 7.36584 2.40622 7.37099 2.68534 7.13924C9.06936 1.84334 18.9298 1.84215 25.3151 7.13924C25.5942 7.37099 26.0265 7.36545 26.2951 7.12418L27.7931 5.77842C28.0744 5.52527 28.0687 5.11208 27.7773 4.86804ZM14 12.6772C12.4534 12.6772 11.2 13.8122 11.2 15.2126C11.2 16.6131 12.4534 17.7481 14 17.7481C15.5466 17.7481 16.8 16.6131 16.8 15.2126C16.8 13.8122 15.5466 12.6772 14 12.6772ZM22.8668 9.36567C17.8242 5.32759 10.1701 5.33195 5.13316 9.36567C4.83129 9.60733 4.82166 10.0269 5.10822 10.2828L6.61498 11.6293C6.87748 11.8639 7.3001 11.8797 7.57967 11.661C11.2525 8.78608 16.7558 8.79242 20.4199 11.661C20.6994 11.8797 21.1221 11.8643 21.3846 11.6293L22.8913 10.2828C23.1783 10.0269 23.1683 9.60693 22.8668 9.36567Z" fill="black"/>
</svg>
