<svg width="28" height="18" viewBox="0 0 28 18" fill="none" xmlns="http://www.w3.org/2000/svg">
<path d="M27.7773 4.86803C20.0261 -1.62387 7.97078 -1.62149 0.22265 4.86803C-0.0687248 5.11207 -0.0744123 5.52526 0.207338 5.77841L1.70534 7.12417C1.97396 7.36583 2.40621 7.37098 2.68534 7.13923C9.06934 1.84334 18.9297 1.84215 25.315 7.13923C25.5942 7.37098 26.0264 7.36544 26.295 7.12417L27.793 5.77841C28.0744 5.52526 28.0687 5.11207 27.7773 4.86803ZM14 12.6772C12.4534 12.6772 11.2 13.8122 11.2 15.2126C11.2 16.613 12.4534 17.748 14 17.748C15.5465 17.748 16.8 16.613 16.8 15.2126C16.8 13.8122 15.5465 12.6772 14 12.6772ZM22.8668 9.36565C17.8242 5.32758 10.1701 5.33194 5.13315 9.36565C4.83128 9.60731 4.82165 10.0268 5.10822 10.2828L6.61497 11.6293C6.87747 11.8638 7.30009 11.8797 7.57965 11.661C11.2525 8.78607 16.7558 8.79241 20.4198 11.661C20.6994 11.8797 21.122 11.8642 21.3845 11.6293L22.8913 10.2828C23.1783 10.0268 23.1682 9.60692 22.8668 9.36565Z" fill="black"/>
</svg>
