<svg width="31" height="23" viewBox="0 0 31 23" fill="none" xmlns="http://www.w3.org/2000/svg">
<path d="M19.3008 10.8756L16.3051 15.9785C15.9435 16.5996 14.8947 16.5791 14.5632 15.9477L11.1336 9.46387L9.32535 13.1447H3.65353L14.6536 22.7189C15.0816 23.0937 15.7747 23.0937 16.2027 22.7189L27.2088 13.1447H20.6328L19.3008 10.8756ZM28.5529 2.15356L28.4082 2.02522C25.3041 -0.675074 20.223 -0.675074 17.1128 2.02522L15.4312 3.49344L13.7495 2.03036C10.6454 -0.675074 5.5582 -0.675074 2.45407 2.03036L2.30941 2.15356C-0.625958 4.71012 -0.752535 8.7811 1.8694 11.5019H8.0415L10.2054 7.07673C10.5308 6.41449 11.6278 6.39909 11.9774 7.05619L15.4854 13.694L18.4388 8.66816C18.7945 8.06239 19.8071 8.06239 20.1627 8.66816L21.8263 11.5019H28.9929C31.6148 8.7811 31.4883 4.71012 28.5529 2.15356Z" fill="#F85A17" fill-opacity="0.69"/>
</svg>
