<svg width="31" height="26" viewBox="0 0 31 26" fill="none" xmlns="http://www.w3.org/2000/svg">
<g clip-path="url(#clip0_18_113)">
<path d="M26.7109 3.25H25.1619C26.1409 4.68609 26.7109 6.34816 26.7109 8.125C26.7109 13.5012 21.5756 17.875 15.2634 17.875C8.95114 17.875 3.81585 13.5012 3.81585 8.125C3.81585 6.34816 4.38584 4.68609 5.36484 3.25H3.81585C1.71176 3.25 0 4.70793 0 6.5V22.75C0 24.5421 1.71176 26 3.81585 26H26.7109C28.815 26 30.5268 24.5421 30.5268 22.75V6.5C30.5268 4.70793 28.815 3.25 26.7109 3.25ZM15.2634 16.25C20.5322 16.25 24.803 12.6125 24.803 8.125C24.803 3.63746 20.5322 0 15.2634 0C9.99453 0 5.72377 3.63746 5.72377 8.125C5.72377 12.6125 9.99453 16.25 15.2634 16.25ZM15.2455 8.5343L17.2476 4.55508C17.4563 4.14019 18.0191 3.94977 18.5015 4.12801C18.9856 4.30473 19.2098 4.78258 19.0029 5.19441L16.9954 9.18328C17.3937 9.54687 17.6483 10.0268 17.6483 10.5625C17.6483 11.6843 16.5804 12.5937 15.2634 12.5937C13.9463 12.5937 12.8785 11.6843 12.8785 10.5625C12.8785 9.44633 13.9374 8.54293 15.2455 8.5343Z" fill="#F85A17" fill-opacity="0.69"/>
</g>
<defs>
<clipPath id="clip0_18_113">
<rect width="30.1491" height="25.6783" fill="white" transform="scale(1.01253)"/>
</clipPath>
</defs>
</svg>
