<svg width="28" height="25" viewBox="0 0 28 25" fill="none" xmlns="http://www.w3.org/2000/svg">
<g clip-path="url(#clip0_7_5)">
<path d="M27.3891 8.55C19.7463 2.14883 7.85942 2.15117 0.219569 8.55C-0.0677338 8.79063 -0.0733418 9.19805 0.204471 9.44766L1.68154 10.7746C1.94641 11.0129 2.37262 11.018 2.64784 10.7895C8.94263 5.56758 18.6652 5.56641 24.9613 10.7895C25.2365 11.018 25.6627 11.0125 25.9276 10.7746L27.4047 9.44766C27.682 9.19805 27.6764 8.79063 27.3891 8.55ZM13.8043 16.25C12.2794 16.25 11.0435 17.3691 11.0435 18.75C11.0435 20.1309 12.2794 21.25 13.8043 21.25C15.3293 21.25 16.5652 20.1309 16.5652 18.75C16.5652 17.3691 15.3293 16.25 13.8043 16.25ZM22.5472 12.9848C17.5751 9.00313 10.028 9.00742 5.06145 12.9848C4.76379 13.223 4.7543 13.6367 5.03686 13.8891L6.52255 15.2168C6.78138 15.448 7.1981 15.4637 7.47376 15.248C11.0952 12.4133 16.5216 12.4195 20.1345 15.248C20.4102 15.4637 20.8269 15.4484 21.0857 15.2168L22.5714 13.8891C22.8544 13.6367 22.8445 13.2227 22.5472 12.9848Z" fill="black"/>
</g>
<defs>
<clipPath id="clip0_7_5">
<rect width="27.6087" height="25" fill="white"/>
</clipPath>
</defs>
</svg>
